HIERARCHY
ROOT Hips
{
 OFFSET 0.000000 0.000000 0.000000
 CHANNELS 6 Xposition Yposition Zposition Yrotation Xrotation Zrotation
 JOINT Chest
 {
  OFFSET 0.000000 9.585900 0.002600
  CHANNELS 3 Yrotation Xrotation Zrotation
  JOINT Chest2
  {
   OFFSET 0.000000 9.601200 -0.005300
   CHANNELS 3 Yrotation Xrotation Zrotation
   JOINT Chest3
   {
    OFFSET 0.000000 9.561800 0.000000
    CHANNELS 3 Yrotation Xrotation Zrotation
    JOINT Chest4
    {
     OFFSET 0.000000 9.552100 0.000000
     CHANNELS 3 Yrotation Xrotation Zrotation
     JOINT Neck
     {
      OFFSET 0.000000 14.453000 0.000000
      CHANNELS 3 Yrotation Xrotation Zrotation
      JOINT Head
      {
       OFFSET 0.000000 8.936500 -0.011300
       CHANNELS 3 Yrotation Xrotation Zrotation
       End Site
       {
        OFFSET 0.000000 17.073600 -0.006000
       }
      }
     }
     JOINT RightCollar
     {
      OFFSET -2.921100 9.558500 0.000000
      CHANNELS 3 Yrotation Xrotation Zrotation
      JOINT RightShoulder
      {
       OFFSET -13.519700 0.000000 0.000000
       CHANNELS 3 Yrotation Xrotation Zrotation
       JOINT RightElbow
       {
        OFFSET 0.000000 -29.696600 0.000000
        CHANNELS 3 Yrotation Xrotation Zrotation
        JOINT RightWrist
        {
         OFFSET 0.000000 -24.004700 0.000000
         CHANNELS 3 Yrotation Xrotation Zrotation
         End Site
         {
          OFFSET 0.000000 -17.728500 0.000000
         }
        }
       }
      }
     }
     JOINT LeftCollar
     {
      OFFSET 2.921100 9.558500 0.000000
      CHANNELS 3 Yrotation Xrotation Zrotation
      JOINT LeftShoulder
      {
       OFFSET 13.519700 0.000000 0.000000
       CHANNELS 3 Yrotation Xrotation Zrotation
       JOINT LeftElbow
       {
        OFFSET 0.000000 -29.696600 0.000000
        CHANNELS 3 Yrotation Xrotation Zrotation
        JOINT LeftWrist
        {
         OFFSET 0.000000 -24.004700 0.000000
         CHANNELS 3 Yrotation Xrotation Zrotation
         End Site
         {
          OFFSET 0.000000 -17.728500 0.000000
         }
        }
       }
      }
     }
    }
   }
  }
 }
 JOINT RightHip
 {
  OFFSET -7.771700 -0.012900 -0.001300
  CHANNELS 3 Yrotation Xrotation Zrotation
  JOINT RightKnee
  {
   OFFSET 0.000000 -40.869800 0.001200
   CHANNELS 3 Yrotation Xrotation Zrotation
   JOINT RightAnkle
   {
    OFFSET 0.000000 -39.717900 0.002100
    CHANNELS 3 Yrotation Xrotation Zrotation
    JOINT RightToe
    {
     OFFSET 0.000000 -4.965400 11.033500
     CHANNELS 3 Yrotation Xrotation Zrotation
     End Site
     {
      OFFSET 0.000000 -1.423100 5.872300
     }
    }
   }
  }
 }
 JOINT LeftHip
 {
  OFFSET 7.771700 -0.012900 -0.001300
  CHANNELS 3 Yrotation Xrotation Zrotation
  JOINT LeftKnee
  {
   OFFSET 0.000000 -40.869800 0.001200
   CHANNELS 3 Yrotation Xrotation Zrotation
   JOINT LeftAnkle
   {
    OFFSET 0.000000 -39.717900 0.002100
    CHANNELS 3 Yrotation Xrotation Zrotation
    JOINT LeftToe
    {
     OFFSET 0.000000 -4.965400 11.033500
     CHANNELS 3 Yrotation Xrotation Zrotation
     End Site
     {
      OFFSET 0.000000 -1.423100 5.872300
     }
    }
   }
  }
 }
}
MOTION
Frames: 9
Frame Time: 0.008333
-18.950268 62.105259 12.140626 173.718394 -49.059956 -1.172704 4.205435 26.716096 1.313824 0.623501 4.561516 0.186626 0.970577 7.186151 0.317531 3.210970 21.735253 1.396983 3.501848 15.527989 1.748054 6.098790 -7.065042 1.984777 7.915097 2.058141 3.517589 -4.959442 -8.092877 -14.882053 -91.760198 -52.597658 139.255813 4.424024 4.630045 3.494736 -9.714655 -0.294664 0.119237 -3.278168 -4.174969 15.511352 116.780365 -67.611382 -148.327966 13.790651 -2.877265 -11.683190 2.797840 -18.156134 -3.598631 -2.218350 61.183098 -5.389659 1.749905 -7.517365 10.397239 0.219559 -0.448426 0.118533 -2.521329 -14.908119 5.396593 24.987335 77.150697 25.498432 1.128301 -11.949771 -3.452519 0.215127 0.608670 0.101530
-18.950160 62.104719 12.137733 173.722314 -49.032204 -1.175931 4.208656 26.700946 1.315011 0.624459 4.561329 0.187154 0.981215 7.201341 0.319010 3.248287 21.755407 1.406143 3.611651 15.440385 1.783929 6.147945 -7.138790 2.003867 7.884747 2.080496 3.511418 -4.978148 -8.163830 -14.872451 -91.909044 -52.490264 139.406000 4.410785 4.650314 3.517254 -9.719639 -0.302663 0.136220 -3.290354 -4.211607 15.506941 116.954509 -67.468329 -148.486573 13.761265 -2.860650 -11.824626 2.788515 -18.183500 -3.602163 -2.204561 61.187776 -5.377423 1.754425 -7.535956 10.391242 0.212216 -0.458681 0.112532 -2.525525 -14.936339 5.401816 24.972962 77.158246 25.481159 1.129694 -11.954106 -3.450228 0.223227 0.609499 0.100694
-18.949098 62.105300 12.133744 173.726091 -49.013971 -1.181915 4.244393 26.727267 1.337960 0.598538 4.527641 0.183298 0.990773 7.212194 0.319793 3.246358 21.741816 1.407953 3.711208 15.397149 1.805231 6.239938 -7.214067 2.022055 7.890253 2.121777 3.501493 -5.003455 -8.213835 -14.881306 -92.039285 -52.374806 139.533200 4.394971 4.641235 3.542834 -9.688627 -0.272470 0.138410 -3.266558 -4.247135 15.503310 117.128669 -67.306181 -148.678501 13.736541 -2.850145 -11.969900 2.782033 -18.201240 -3.600439 -2.204779 61.193153 -5.376905 1.760208 -7.548072 10.387028 0.209997 -0.463637 0.110181 -2.529903 -14.953884 5.408016 24.993296 77.162416 25.502550 1.119686 -11.957662 -3.451952 0.218551 0.606669 0.100580
-18.949126 62.106378 12.129011 173.750432 -49.000134 -1.194027 4.245913 26.733914 1.339874 0.603167 4.527988 0.188297 0.992675 7.210292 0.320348 3.236703 21.731006 1.408149 3.784292 15.358223 1.821955 6.348826 -7.289450 2.041996 7.882818 2.133352 3.498357 -5.052785 -8.240765 -14.909952 -92.149485 -52.236802 139.669627 4.373573 4.631149 3.558811 -9.655402 -0.240858 0.137801 -3.170225 -4.287058 15.503604 117.263183 -67.117179 -148.910168 13.721952 -2.852303 -12.098073 2.763341 -18.215722 -3.613753 -2.183585 61.207307 -5.349175 1.755301 -7.559397 10.375018 0.215348 -0.472771 0.109245 -2.542531 -14.968202 5.403654 24.947730 77.169934 25.463053 1.120100 -11.955828 -3.457755 0.223991 0.601988 0.105227
-18.948224 62.105501 12.126096 173.763157 -48.971175 -1.201710 4.251700 26.719163 1.342881 0.605720 4.531303 0.186382 1.018883 7.216831 0.320757 3.223664 21.713972 1.413349 3.846447 15.317386 1.847656 6.451275 -7.361411 2.067326 7.864367 2.143440 3.504634 -5.096787 -8.270315 -14.929083 -92.266416 -52.099914 139.801993 4.343038 4.617722 3.568464 -9.653988 -0.227448 0.147404 -3.082547 -4.313034 15.505918 117.409722 -66.919576 -149.123163 13.721108 -2.871295 -12.191542 2.754677 -18.244480 -3.618297 -2.172475 61.214212 -5.336106 1.752499 -7.570850 10.368920 0.216811 -0.474628 0.109005 -2.547956 -14.999178 5.407668 24.933396 77.176064 25.449322 1.116828 -11.956757 -3.453859 0.233907 0.600647 0.104168
-18.945539 62.105395 12.122836 173.773766 -48.948556 -1.216161 4.265483 26.713202 1.355985 0.612316 4.529047 0.188602 1.006972 7.207210 0.320197 3.246178 21.712618 1.416268 3.899566 15.280698 1.873550 6.549337 -7.430514 2.096620 7.851654 2.179838 3.511411 -5.152810 -8.325160 -14.941041 -92.382138 -51.958202 139.931207 4.302920 4.594561 3.569492 -9.655342 -0.210522 0.154197 -3.011355 -4.339939 15.510485 117.598570 -66.720124 -149.355438 13.737002 -2.915200 -12.244536 2.744581 -18.267131 -3.613426 -2.163391 61.219940 -5.326265 1.759229 -7.575077 10.369727 0.211254 -0.482199 0.103130 -2.556221 -15.022707 5.416150 24.903203 77.189034 25.421748 1.140740 -11.964822 -3.458481 0.238277 0.602365 0.105425
-18.943456 62.104847 12.120060 173.774795 -48.923198 -1.218501 4.284755 26.707192 1.362572 0.610691 4.524574 0.189925 1.000452 7.197511 0.320870 3.278110 21.714090 1.413468 3.944255 15.240660 1.910317 6.643770 -7.494517 2.128543 7.831683 2.215176 3.529651 -5.188884 -8.379170 -14.945684 -92.521706 -51.819577 140.062431 4.257453 4.560760 3.557165 -9.598406 -0.135039 0.143007 -2.999042 -4.425936 15.546653 117.828559 -66.523153 -149.620961 13.770499 -2.987048 -12.258317 2.743164 -18.293451 -3.610632 -2.164400 61.225430 -5.328018 1.758246 -7.578289 10.374161 0.211906 -0.485412 0.097508 -2.557140 -15.048312 5.420904 24.889836 77.197474 25.409561 1.148747 -11.971911 -3.457298 0.231973 0.603058 0.103588
-18.941395 62.103733 12.117993 173.780962 -48.894338 -1.223718 4.287188 26.685277 1.362972 0.620996 4.529786 0.189089 1.003576 7.193307 0.321797 3.274665 21.706742 1.417978 4.003254 15.209676 1.934322 6.734953 -7.551509 2.163993 7.842346 2.262059 3.532580 -5.235174 -8.438174 -14.947133 -92.673430 -51.672909 140.196540 4.204980 4.518793 3.535244 -9.568500 -0.101784 0.130206 -2.924978 -4.466959 15.568264 118.075154 -66.326266 -149.896736 13.823980 -3.077540 -12.249963 2.740462 -18.323907 -3.608909 -2.170728 61.231026 -5.333292 1.757579 -7.579311 10.377952 0.210430 -0.489716 0.092656 -2.563324 -15.079019 5.427251 24.870636 77.206669 25.389548 1.147797 -11.976871 -3.452542 0.227836 0.602528 0.099979
-18.940356 62.101442 12.117132 173.798973 -48.856769 -1.231413 4.277239 26.654976 1.355133 0.628181 4.533371 0.187830 1.005564 7.188833 0.321810 3.282046 21.700442 1.419423 4.053624 15.181275 1.966216 6.822168 -7.600297 2.204186 7.856085 2.340918 3.538725 -5.377899 -8.563379 -14.957799 -92.741882 -51.492525 140.321840 4.135789 4.468251 3.498676 -9.565771 -0.084229 0.132078 -2.825006 -4.492455 15.579643 118.297969 -66.122498 -150.144635 13.897860 -3.175062 -12.247743 2.731724 -18.363164 -3.613783 -2.178240 61.237763 -5.341699 1.756766 -7.583037 10.381346 0.213445 -0.492457 0.092067 -2.576067 -15.118262 5.425890 24.853431 77.213128 25.370689 1.150227 -11.989259 -3.449692 0.222942 0.611903 0.098373
